<svg xmlns="http://www.w3.org/2000/svg" viewBox="0 0 256 256" role="img" aria-label="Greyhound Mobile icon">
  <defs>
    <linearGradient id="g" x1="0" x2="1" y1="0" y2="1">
      <stop offset="0%" stop-color="#2563eb"/>
      <stop offset="100%" stop-color="#0f172a"/>
    </linearGradient>
  </defs>
  <rect width="256" height="256" rx="56" fill="url(#g)"/>
  <path d="M65 155c18-37 41-62 69-76 11-6 25-10 38-6 8 2 15 8 18 15 4 10-1 23-10 29-10 7-24 8-35 13-13 5-24 15-31 27l-15 25H65l20-27-7 0c-6 0-10 0-13 0z" fill="#e2e8f0"/>
  <circle cx="173" cy="91" r="8" fill="#020617"/>
  <path d="M53 184h150" stroke="#93c5fd" stroke-width="12" stroke-linecap="round"/>
</svg>
